<?xml version="1.0" encoding="UTF-8"?><svg id="uuid-6f6baf77-e13c-47b8-a9f7-85ef1fc4d280" xmlns="http://www.w3.org/2000/svg" viewBox="0 0 130 130"><defs><style>.uuid-9a1080d5-5d99-423f-ba15-0079e2e5759e{fill:#39c2de;}</style></defs><g id="uuid-a810a5a1-0838-450e-b74c-dad38fb35a51"><path class="uuid-9a1080d5-5d99-423f-ba15-0079e2e5759e" d="m64.99,76.12c-4.46,0-8.93-1-12.41-3.01L7.12,46.92c-3.69-2.13-5.81-5.38-5.8-8.93s2.13-6.8,5.82-8.92L52.66,2.98c6.94-3.98,17.82-3.97,24.75.03l45.46,26.2c3.69,2.13,5.81,5.38,5.8,8.93,0,3.55-2.13,6.8-5.82,8.92l-45.52,26.09c-3.46,1.99-7.9,2.98-12.34,2.98ZM10.75,38c.17.18.47.43.94.7l45.46,26.2c4.16,2.4,11.46,2.41,15.63.02l45.52-26.09c.47-.27.77-.52.94-.69-.17-.18-.47-.43-.94-.7l-45.46-26.2c-4.16-2.4-11.46-2.4-15.63-.02L11.69,37.3c-.47.27-.77.52-.94.69Z"/><path class="uuid-9a1080d5-5d99-423f-ba15-0079e2e5759e" d="m127.4,60.02l-49.34,28.55c-7.18,4.16-18.93,4.16-26.11,0L2.6,60.02c-1.63-.94-2.78.53-2.58,3.29l.11,1.47c.2,2.76,1.69,5.76,3.31,6.7l47.95,27.75c7.49,4.33,19.73,4.33,27.22,0l47.95-27.75c1.63-.94,3.11-3.94,3.31-6.7l.11-1.47c.2-2.76-.95-4.23-2.58-3.29Z"/><path class="uuid-9a1080d5-5d99-423f-ba15-0079e2e5759e" d="m127.4,87.54l-49.34,28.55c-7.18,4.16-18.93,4.16-26.11,0L2.6,87.54c-1.63-.94-2.78.53-2.58,3.29l.11,1.47c.2,2.76,1.69,5.76,3.31,6.7l47.95,27.75c7.49,4.33,19.73,4.33,27.22,0l47.95-27.75c1.63-.94,3.11-3.94,3.31-6.7l.11-1.47c.2-2.76-.95-4.23-2.58-3.29Z"/></g></svg>