<?xml version="1.0" encoding="UTF-8"?><svg id="uuid-f0d55072-41ed-423d-bd3e-f7fce4dfa9cc" xmlns="http://www.w3.org/2000/svg" viewBox="0 0 841.77 198.43"><defs><style>.uuid-0ffa8b8f-bdab-49a3-a4b4-6ffadea234d3{fill:#39c2de;}.uuid-e5e77dc8-ddba-4837-bd24-285b64007432{fill:#0acde8;}</style></defs><g id="uuid-75cd05b5-fd26-4730-a6ba-74b746b3444a"><path class="uuid-e5e77dc8-ddba-4837-bd24-285b64007432" d="m272.14,162.08c-11.44,0-20.48-2.59-27.12-7.79-6.65-5.19-9.98-12.22-9.98-21.09h21.52c0,3.74,1.37,6.59,4.11,8.58,2.74,1.99,6.56,2.97,11.46,2.97h7.7c5.25,0,9.3-.99,12.16-2.97,2.86-1.98,4.29-4.84,4.29-8.58,0-3.5-.99-6.09-2.98-7.79-1.98-1.69-5.02-2.83-9.1-3.41l-23.97-3.15c-7.7-1.05-13.62-4.03-17.76-8.93-4.14-4.9-6.21-11.26-6.21-19.07,0-9.1,3.03-16.07,9.1-20.91,6.06-4.84,14.81-7.26,26.25-7.26h8.05c10.73,0,19.36,2.45,25.9,7.35,6.53,4.9,9.92,11.43,10.15,19.6h-21.7c-.12-3.03-1.46-5.45-4.02-7.26-2.57-1.81-6.01-2.71-10.33-2.71h-8.05c-4.67,0-8.23.96-10.68,2.89-2.45,1.92-3.67,4.52-3.67,7.79,0,2.92.9,5.08,2.71,6.47,1.81,1.4,4.46,2.28,7.96,2.62l22.58,3.15c8.86,1.05,15.54,4.17,20.04,9.36,4.49,5.19,6.74,12.16,6.74,20.91,0,9.33-3.18,16.54-9.54,21.61-6.36,5.08-15.66,7.61-27.91,7.61h-7.7Z"/><path class="uuid-e5e77dc8-ddba-4837-bd24-285b64007432" d="m390.79,160.51c-8.99,0-16.13-2.59-21.44-7.79-5.31-5.19-7.96-12.22-7.96-21.09v-47.6h-26.6v-19.78h26.6v-27.12h22.05v27.12h38.32v19.78h-38.32v47.08c0,2.8.79,5.1,2.36,6.91,1.58,1.81,3.76,2.71,6.56,2.71h28.52v19.77h-30.1Z"/><path class="uuid-e5e77dc8-ddba-4837-bd24-285b64007432" d="m475.49,162.26c-9.8,0-17.53-2.77-23.19-8.31-5.66-5.54-8.49-12.8-8.49-21.79s3.21-16.77,9.62-22.31c6.41-5.54,15.22-8.31,26.42-8.31h23.45v-6.83c0-9.68-5.66-14.53-16.98-14.53-5.13,0-9.22.99-12.25,2.98-3.04,1.99-4.72,4.79-5.08,8.4h-21c.46-8.63,4.11-15.63,10.94-21,6.83-5.36,16.01-8.05,27.56-8.05,12.25,0,21.76,2.86,28.53,8.58,6.76,5.72,10.15,13.77,10.15,24.15v65.27h-21.35v-18.02c-.82,6.18-3.74,11.02-8.75,14.52-5.02,3.5-11.55,5.25-19.6,5.25Zm7-17.85c6.42,0,11.49-1.58,15.22-4.73,3.73-3.15,5.6-7.35,5.6-12.6v-11.38h-22.4c-4.79,0-8.58,1.34-11.38,4.03-2.8,2.68-4.2,6.12-4.2,10.32s1.49,7.79,4.46,10.41c2.97,2.62,7.2,3.94,12.69,3.94Z"/><path class="uuid-e5e77dc8-ddba-4837-bd24-285b64007432" d="m592.74,162.26c-8.29,0-15.49-1.55-21.61-4.64s-10.88-7.46-14.26-13.12c-3.39-5.66-5.08-12.34-5.08-20.04v-24.15c0-7.7,1.69-14.38,5.08-20.04,3.38-5.66,8.14-10.03,14.26-13.12,6.12-3.09,13.33-4.64,21.61-4.64,12.01,0,21.67,3.12,28.96,9.36,7.29,6.24,11.11,14.73,11.46,25.46h-21.53c-.35-5.01-2.25-8.89-5.69-11.64-3.44-2.74-7.85-4.11-13.21-4.11-5.95,0-10.62,1.61-14,4.81-3.39,3.21-5.08,7.79-5.08,13.74v24.33c0,5.95,1.69,10.56,5.08,13.83,3.38,3.27,8.05,4.9,14,4.9,5.48,0,9.92-1.37,13.3-4.11,3.38-2.74,5.25-6.62,5.6-11.64h21.53c-.35,10.74-4.17,19.22-11.46,25.46-7.29,6.24-16.95,9.36-28.96,9.36Z"/><path class="uuid-e5e77dc8-ddba-4837-bd24-285b64007432" d="m658.02,160.51V32.76h21.88v69.3h15.4l22.92-37.8h24.33l-28.53,46.55,29.58,49.7h-24.85l-23.45-39.9h-15.4v39.9h-21.88Z"/><path class="uuid-e5e77dc8-ddba-4837-bd24-285b64007432" d="m801.17,162.26c-8.29,0-15.46-1.58-21.53-4.72-6.07-3.15-10.76-7.58-14.09-13.3-3.33-5.71-4.99-12.43-4.99-20.12v-54.95c0-7.7,1.66-14.41,4.99-20.12,3.33-5.71,8.02-10.15,14.09-13.3,6.07-3.15,13.24-4.73,21.53-4.73s15.46,1.58,21.53,4.73c6.06,3.15,10.76,7.58,14.09,13.3,3.33,5.72,4.99,12.42,4.99,20.12v54.95c0,7.7-1.66,14.41-4.99,20.12-3.33,5.72-8.02,10.15-14.09,13.3-6.07,3.15-13.24,4.72-21.53,4.72Zm-19.95-93.1v40.95l39.2-46.55c-1.05-4.2-3.27-7.52-6.65-9.97-3.38-2.45-7.58-3.67-12.6-3.67-6.19,0-11.05,1.75-14.61,5.25-3.56,3.5-5.34,8.17-5.34,14Zm19.95,74.2c6.06,0,10.91-1.75,14.53-5.25,3.61-3.5,5.42-8.17,5.42-14v-40.95l-39.2,46.55c1.05,4.2,3.26,7.53,6.65,9.97,3.38,2.45,7.58,3.68,12.6,3.68Z"/><path class="uuid-0ffa8b8f-bdab-49a3-a4b4-6ffadea234d3" d="m99.2,116.18c-6.81,0-13.63-1.53-18.94-4.59L10.87,71.61c-5.63-3.25-8.86-8.22-8.86-13.63s3.25-10.38,8.89-13.61L80.38,4.54c10.6-6.07,27.2-6.06,37.78.05l69.39,39.99c5.63,3.25,8.86,8.22,8.86,13.63,0,5.42-3.25,10.38-8.89,13.61l-69.49,39.82c-5.29,3.03-12.06,4.54-18.84,4.54ZM16.42,57.99c.26.27.72.65,1.43,1.06l69.39,39.99c6.35,3.66,17.49,3.67,23.85.03l69.49-39.82c.71-.41,1.17-.79,1.43-1.06-.26-.27-.72-.65-1.43-1.06L111.19,17.14c-6.35-3.66-17.49-3.67-23.85-.03L17.85,56.94c-.71.41-1.17.79-1.43,1.06Z"/><path class="uuid-0ffa8b8f-bdab-49a3-a4b4-6ffadea234d3" d="m194.45,91.61l-75.31,43.58c-10.96,6.34-28.89,6.34-39.85,0L3.98,91.61c-2.48-1.44-4.25.81-3.94,5.02l.16,2.24c.31,4.21,2.57,8.79,5.06,10.23l73.18,42.35c11.43,6.61,30.12,6.61,41.55,0l73.18-42.35c2.48-1.44,4.75-6.02,5.06-10.23l.16-2.24c.31-4.21-1.46-6.46-3.94-5.02Z"/><path class="uuid-0ffa8b8f-bdab-49a3-a4b4-6ffadea234d3" d="m194.45,133.62l-75.31,43.58c-10.96,6.34-28.89,6.34-39.85,0L3.98,133.62c-2.48-1.44-4.25.81-3.94,5.02l.16,2.24c.31,4.21,2.57,8.79,5.06,10.23l73.18,42.35c11.43,6.61,30.12,6.61,41.55,0l73.18-42.35c2.48-1.44,4.75-6.02,5.06-10.23l.16-2.24c.31-4.21-1.46-6.46-3.94-5.02Z"/></g></svg>